<svg width="45" height="45" viewBox="0 0 45 45" fill="none" xmlns="http://www.w3.org/2000/svg">
<g id="&#231;&#148;&#168;&#230;&#136;&#183;">
<g id="&#231;&#148;&#168;&#230;&#136;&#183;_2">
<g clip-path="url(#clip0_154_37247)">
<rect x="0.689453" y="0.25" width="44" height="44" rx="22" fill="#B4BFCC"/>
<path id="Vector" d="M22.5805 11.3728C23.229 11.3729 23.8751 11.4511 24.5051 11.605C25.1247 11.752 25.728 11.9611 26.3058 12.229C26.8357 12.472 27.338 12.771 27.8041 13.1211C28.1858 13.4079 28.5279 13.7439 28.8215 14.1205C29.3955 14.8747 29.8286 15.7265 30.0998 16.6347C30.3513 17.4937 30.5397 18.3698 30.6636 19.2562C30.7854 20.2136 30.8451 21.1779 30.8421 22.1431C30.9985 22.2682 31.1253 22.4264 31.2135 22.6062C31.3085 22.8109 31.3777 23.0266 31.4196 23.2483C31.4788 23.5658 31.4882 23.8903 31.4471 24.2107C31.4141 24.6216 31.3166 25.0246 31.1584 25.4052C31.0348 25.6639 30.8674 25.8993 30.6636 26.1009C30.4861 26.2789 30.2696 26.413 30.0312 26.4928C29.9276 26.8749 29.8177 27.2553 29.7015 27.6338C29.5776 27.943 29.4538 28.2454 29.3165 28.5437C29.193 28.8025 29.0255 29.0379 28.8215 29.2394C28.4672 29.5356 28.1189 29.8391 27.7769 30.1495C27.4684 30.504 27.2806 30.9474 27.2407 31.4156C27.1765 31.7742 27.1534 32.139 27.1719 32.5028C27.204 32.8835 27.3015 33.2554 27.4607 33.6026C27.6482 33.9988 27.9095 34.3557 28.2305 34.6541C28.6638 35.0368 29.1619 35.339 29.7015 35.5464C30.2968 35.7987 30.9074 36.0131 31.5297 36.1885C32.1821 36.3754 32.8245 36.5956 33.4543 36.8483C34.0493 37.0787 34.6092 37.391 35.1177 37.7762C35.6101 38.161 35.9705 38.6895 36.1487 39.2884C36.2732 39.7498 36.356 40.2213 36.3962 40.6975C36.4514 41.2607 36.4789 41.8264 36.4787 42.3923C36.4813 42.93 36.4399 43.467 36.355 43.9979C36.3132 44.3965 36.1967 44.7836 36.0114 45.139C35.7435 45.392 35.4101 45.5649 35.0489 45.6381C34.4119 45.833 33.7649 45.9936 33.1107 46.1192C32.3271 46.2733 31.4748 46.4107 30.5126 46.5316C29.5615 46.6514 28.6082 46.7527 27.6533 46.8355C26.7288 46.9159 25.803 46.9815 24.8764 47.0322C23.9966 47.0803 23.2269 47.1037 22.5807 47.1037C21.9345 47.1037 21.1785 47.0803 20.3125 47.0322C19.4463 46.984 18.5665 46.9193 17.6456 46.8355C16.7325 46.7525 15.8205 46.6572 14.91 46.5494C14.0026 46.4422 13.1778 46.3295 12.4357 46.2114C11.6934 46.0931 11.0747 45.9736 10.5524 45.8541C10.2101 45.8034 9.8823 45.6817 9.58991 45.4968C9.24674 44.9789 9.06495 44.3708 9.06755 43.7495C8.94843 42.4879 8.99929 41.2159 9.21875 39.9677C9.27592 39.1933 9.63064 38.4711 10.2086 37.9525C10.7777 37.4789 11.4241 37.1069 12.1194 36.8528C12.8634 36.5729 13.6203 36.3289 14.3876 36.1215C15.1253 35.927 15.8264 35.6136 16.4634 35.1936C16.8615 34.9488 17.2226 34.6483 17.5356 34.3013C17.7627 34.0491 17.9441 33.7593 18.0717 33.4449C18.1924 33.1631 18.2533 32.8592 18.2504 32.5526C18.2504 32.2438 18.2366 31.8987 18.209 31.5175C18.1941 31.0328 18.0035 30.5701 17.6728 30.2155C17.3374 29.875 16.989 29.5476 16.6283 29.234C16.4293 29.0342 16.2706 28.798 16.1608 28.5383C16.0348 28.2359 15.9111 27.9326 15.7896 27.6284C15.6733 27.2499 15.5634 26.8695 15.4599 26.4874C15.2905 26.4325 15.1322 26.3478 14.9926 26.2372C14.8266 26.089 14.6789 25.9215 14.5527 25.7382C14.368 25.4538 14.2332 25.14 14.154 24.8103C14.0219 24.4597 13.9702 24.0839 14.0028 23.7107C14.026 23.4187 14.0861 23.1309 14.1815 22.8541C14.2808 22.5794 14.4299 22.3254 14.6214 22.1049C14.5986 21.1991 14.6445 20.2929 14.7588 19.3941C14.8573 18.5629 15.0182 17.7404 15.2401 16.9333C15.4575 16.0943 15.8153 15.2981 16.2985 14.5786C16.6825 13.9624 17.1656 13.4138 17.7282 12.955C18.2186 12.5581 18.7594 12.2281 19.3365 11.9734C19.8634 11.7427 20.4178 11.581 20.9861 11.4923C21.5138 11.4104 22.0469 11.3686 22.5809 11.3672V11.3728H22.5805Z" fill="white"/>
<circle id="Ellipse 3963" cx="22.6895" cy="22.25" r="21" stroke="#ABBCD0" stroke-width="2"/>
</g>
</g>
</g>
<defs>
<clipPath id="clip0_154_37247">
<rect x="0.689453" y="0.25" width="44" height="44" rx="22" fill="white"/>
</clipPath>
</defs>
</svg>
